<svg width="55" height="55" viewBox="0 0 55 55" fill="none" xmlns="http://www.w3.org/2000/svg">
<path d="M37.8125 20.625C37.8125 23.36 36.726 25.9831 34.792 27.917C32.8581 29.851 30.235 30.9375 27.5 30.9375C24.765 30.9375 22.1419 29.851 20.208 27.917C18.274 25.9831 17.1875 23.36 17.1875 20.625C17.1875 17.89 18.274 15.2669 20.208 13.333C22.1419 11.399 24.765 10.3125 27.5 10.3125C30.235 10.3125 32.8581 11.399 34.792 13.333C36.726 15.2669 37.8125 17.89 37.8125 20.625Z" fill="white"/>
<path fill-rule="evenodd" clip-rule="evenodd" d="M0 27.5C0 20.2065 2.89731 13.2118 8.05456 8.05456C13.2118 2.89731 20.2065 0 27.5 0C34.7935 0 41.7882 2.89731 46.9454 8.05456C52.1027 13.2118 55 20.2065 55 27.5C55 34.7935 52.1027 41.7882 46.9454 46.9454C41.7882 52.1027 34.7935 55 27.5 55C20.2065 55 13.2118 52.1027 8.05456 46.9454C2.89731 41.7882 0 34.7935 0 27.5ZM27.5 3.4375C22.9686 3.43774 18.5294 4.7175 14.6933 7.12947C10.8571 9.54144 7.78003 12.9876 5.81613 17.0713C3.85222 21.155 3.08133 25.7102 3.59218 30.2127C4.10304 34.7152 5.87487 38.982 8.70375 42.5219C11.1444 38.5894 16.5172 34.375 27.5 34.375C38.4828 34.375 43.8522 38.5859 46.2963 42.5219C49.1251 38.982 50.897 34.7152 51.4078 30.2127C51.9187 25.7102 51.1478 21.155 49.1839 17.0713C47.22 12.9876 44.1429 9.54144 40.3067 7.12947C36.4706 4.7175 32.0314 3.43774 27.5 3.4375Z" fill="white"/>
</svg>
