<svg width="138" height="138" viewBox="0 0 138 138" fill="none" xmlns="http://www.w3.org/2000/svg">
<path d="M64.6761 69C83.5431 69 98.8378 54.6731 98.8378 37C98.8378 19.3269 83.5431 5 64.6761 5C45.8091 5 30.5144 19.3269 30.5144 37C30.5144 54.6731 45.8091 69 64.6761 69Z" stroke="white" stroke-width="9.5"/>
<path d="M98.8383 133H18.6677C16.7299 133 14.8142 132.615 13.0477 131.869C11.2812 131.122 9.70432 130.033 8.42171 128.672C7.1391 127.312 6.1801 125.711 5.60835 123.977C5.0366 122.242 4.86518 120.414 5.10546 118.613L7.77007 98.6192C8.38974 93.9742 10.7996 89.7013 14.5466 86.604C18.2936 83.5066 23.1195 81.7982 28.1168 81.8H30.5149" stroke="white" stroke-width="9.5" stroke-linecap="round" stroke-linejoin="round"/>
<path d="M112.503 75.4V113.8" stroke="white" stroke-width="9.5" stroke-linecap="round" stroke-linejoin="round"/>
<path d="M92.0056 94.6H133" stroke="white" stroke-width="9.5" stroke-linecap="round" stroke-linejoin="round"/>
</svg>
