<svg width="128" height="129" viewBox="0 0 128 129" fill="none" xmlns="http://www.w3.org/2000/svg">
<path d="M65.6801 57.9202C61.1812 57.8728 56.7969 56.4954 53.0792 53.9615C49.3614 51.4276 46.4765 47.8504 44.7876 43.6803C43.0986 39.5102 42.6812 34.9336 43.5879 30.5268C44.4945 26.12 46.6847 22.0799 49.8827 18.9152C53.0807 15.7505 57.1435 13.6028 61.5596 12.7423C65.9757 11.8818 70.5476 12.3471 74.6998 14.0796C78.852 15.8121 82.3988 18.7344 84.8937 22.4785C87.3885 26.2225 88.7199 30.621 88.7201 35.1202C88.6778 41.1956 86.2292 47.0067 81.9106 51.2802C77.5921 55.5538 71.7557 57.9415 65.6801 57.9202ZM65.6801 20.3202C62.7636 20.3675 59.9262 21.2755 57.5241 22.9302C55.122 24.585 53.2625 26.9126 52.179 29.6208C51.0955 32.3289 50.8365 35.2969 51.4344 38.1518C52.0322 41.0067 53.4604 43.6213 55.5394 45.6672C57.6185 47.7131 60.2557 49.099 63.1199 49.6509C65.9841 50.2028 68.9475 49.896 71.6379 48.7691C74.3283 47.6422 76.6257 45.7455 78.2416 43.3171C79.8575 40.8887 80.7197 38.037 80.7201 35.1202C80.6779 31.1664 79.0721 27.3902 76.2539 24.6169C73.4356 21.8436 69.634 20.2988 65.6801 20.3202Z" fill="white"/>
<path d="M65.6801 57.9202C61.1812 57.8728 56.7969 56.4954 53.0792 53.9615C49.3614 51.4276 46.4765 47.8504 44.7876 43.6803C43.0986 39.5102 42.6812 34.9336 43.5879 30.5268C44.4945 26.12 46.6847 22.0799 49.8827 18.9152C53.0807 15.7505 57.1435 13.6028 61.5596 12.7423C65.9757 11.8818 70.5476 12.3471 74.6998 14.0796C78.852 15.8121 82.3988 18.7344 84.8937 22.4785C87.3885 26.2225 88.7199 30.621 88.7201 35.1202C88.6778 41.1956 86.2292 47.0067 81.9106 51.2802C77.5921 55.5538 71.7557 57.9415 65.6801 57.9202ZM65.6801 20.3202C62.7636 20.3675 59.9262 21.2755 57.5241 22.9302C55.122 24.585 53.2625 26.9126 52.179 29.6208C51.0955 32.3289 50.8365 35.2969 51.4344 38.1518C52.0322 41.0067 53.4604 43.6213 55.5394 45.6672C57.6185 47.7131 60.2557 49.099 63.1199 49.6509C65.9841 50.2028 68.9475 49.896 71.6379 48.7691C74.3283 47.6422 76.6257 45.7455 78.2416 43.3171C79.8575 40.8887 80.7197 38.037 80.7201 35.1202C80.6779 31.1664 79.0721 27.3902 76.2539 24.6169C73.4356 21.8436 69.634 20.2988 65.6801 20.3202Z" fill="white"/>
<path d="M79.6402 63.2802C61.8984 60.1929 43.6336 63.0029 27.6402 71.2802C26.5049 71.9105 25.5648 72.841 24.9228 73.9698C24.2808 75.0985 23.9616 76.3822 24.0002 77.6802V91.9201C24.0002 92.981 24.4216 93.9984 25.1718 94.7486C25.9219 95.4987 26.9393 95.9201 28.0002 95.9201C29.0611 95.9201 30.0785 95.4987 30.8286 94.7486C31.5788 93.9984 32.0002 92.981 32.0002 91.9201V78.2001C46.8309 70.7587 63.6961 68.3976 80.0002 71.4802L79.6402 63.2802Z" fill="white"/>
<path d="M124 80.6801H97.2V74.7601C97.2 73.6993 96.7786 72.6819 96.0284 71.9317C95.2783 71.1816 94.2609 70.7601 93.2 70.7601C92.1391 70.7601 91.1217 71.1816 90.3716 71.9317C89.6214 72.6819 89.2 73.6993 89.2 74.7601V80.6801H60C58.9391 80.6801 57.9217 81.1016 57.1716 81.8517C56.4214 82.6019 56 83.6193 56 84.6801V124.68C56 125.741 56.4214 126.758 57.1716 127.509C57.9217 128.259 58.9391 128.68 60 128.68H124C125.061 128.68 126.078 128.259 126.828 127.509C127.579 126.758 128 125.741 128 124.68V84.6801C128 83.6193 127.579 82.6019 126.828 81.8517C126.078 81.1016 125.061 80.6801 124 80.6801ZM120 120.68H64V88.6801H89.2V90.3201C89.2 91.381 89.6214 92.3984 90.3716 93.1486C91.1217 93.8987 92.1391 94.3201 93.2 94.3201C94.2609 94.3201 95.2783 93.8987 96.0284 93.1486C96.7786 92.3984 97.2 91.381 97.2 90.3201V88.6801H120V120.68Z" fill="white"/>
<path d="M79.2402 102.36H103.08V107.96H79.2402V102.36Z" fill="white"/>
<path d="M35.36 41.6402C24.2858 41.8254 13.4036 44.5631 3.56 49.6402C2.48945 50.2056 1.59271 51.0514 0.965659 52.0871C0.338609 53.1228 0.00482739 54.3095 0 55.5202V67.9202C0 68.981 0.421427 69.9984 1.17157 70.7486C1.92172 71.4987 2.93913 71.9202 4 71.9202C5.06087 71.9202 6.07828 71.4987 6.82843 70.7486C7.57857 69.9984 8 68.981 8 67.9202V56.3202C17.4052 51.6387 27.8182 49.3445 38.32 49.6402C36.946 47.1333 35.9486 44.4377 35.36 41.6402Z" fill="white"/>
<path d="M124.44 49.6002C115.611 44.969 105.909 42.2435 95.96 41.6002C95.3742 44.3927 94.3909 47.0868 93.04 49.6002C102.412 49.8245 111.619 52.1193 120 56.3202V67.9202C120 68.981 120.421 69.9984 121.172 70.7486C121.922 71.4987 122.939 71.9202 124 71.9202C125.061 71.9202 126.078 71.4987 126.828 70.7486C127.579 69.9984 128 68.981 128 67.9202V55.5202C128.002 54.3027 127.672 53.1076 127.045 52.0643C126.417 51.0209 125.517 50.1688 124.44 49.6002Z" fill="white"/>
<path d="M34.6399 35.1201V32.4401C31.5064 32.0208 28.6553 30.4091 26.6802 27.9405C24.7051 25.472 23.7581 22.3368 24.0364 19.1876C24.3148 16.0384 25.7969 13.1179 28.1744 11.034C30.5518 8.95009 33.6414 7.86341 36.7999 8.00015C40.0852 7.9942 43.2428 9.27162 45.5999 11.5601C47.6795 9.84487 49.9635 8.39382 52.3999 7.24015C49.6783 4.11077 46.0724 1.8795 42.0574 0.840427C38.0424 -0.198646 33.8068 0.00325073 29.9089 1.41951C26.0109 2.83577 22.6336 5.39991 20.222 8.77396C17.8105 12.148 16.4779 16.1736 16.3999 20.3201C16.4838 25.3952 18.4567 30.2566 21.9331 33.9549C25.4095 37.6532 30.1398 39.9227 35.1999 40.3201C34.8606 38.6067 34.6732 36.8666 34.6399 35.1201Z" fill="white"/>
<path d="M91.0798 0.000160305C88.331 0.000765452 85.6099 0.549384 83.0755 1.61394C80.5412 2.67849 78.2445 4.23762 76.3198 6.20016C79.024 7.18004 81.5811 8.52589 83.9198 10.2002C85.7872 8.90388 87.9714 8.13869 90.2395 7.98619C92.5076 7.8337 94.7746 8.29961 96.7987 9.33424C98.8228 10.3689 100.528 11.9335 101.733 13.8611C102.938 15.7888 103.597 18.0074 103.64 20.2802C103.615 22.6147 102.929 24.8944 101.662 26.8553C100.395 28.8162 98.5979 30.3781 96.4798 31.3602C96.6408 32.5936 96.7209 33.8363 96.7198 35.0802C96.7091 36.688 96.5754 38.2927 96.3198 39.8802C100.677 38.7599 104.542 36.2305 107.313 32.6856C110.084 29.1407 111.605 24.7793 111.64 20.2802C111.587 14.8694 109.395 9.69937 105.543 5.89951C101.69 2.09965 96.4908 -0.0212342 91.0798 0.000160305Z" fill="white"/>
</svg>
