<svg width="96" height="128" viewBox="0 0 96 128" fill="none" xmlns="http://www.w3.org/2000/svg">
<path d="M40 52C40 50.9391 40.4214 49.9217 41.1716 49.1716C41.9217 48.4214 42.9391 48 44 48H72C73.0609 48 74.0783 48.4214 74.8284 49.1716C75.5786 49.9217 76 50.9391 76 52C76 53.0609 75.5786 54.0783 74.8284 54.8284C74.0783 55.5786 73.0609 56 72 56H44C42.9391 56 41.9217 55.5786 41.1716 54.8284C40.4214 54.0783 40 53.0609 40 52ZM40 76C40 74.9391 40.4214 73.9217 41.1716 73.1716C41.9217 72.4214 42.9391 72 44 72H72C73.0609 72 74.0783 72.4214 74.8284 73.1716C75.5786 73.9217 76 74.9391 76 76C76 77.0609 75.5786 78.0783 74.8284 78.8284C74.0783 79.5786 73.0609 80 72 80H44C42.9391 80 41.9217 79.5786 41.1716 78.8284C40.4214 78.0783 40 77.0609 40 76ZM40 100C40 98.9391 40.4214 97.9217 41.1716 97.1716C41.9217 96.4214 42.9391 96 44 96H72C73.0609 96 74.0783 96.4214 74.8284 97.1716C75.5786 97.9217 76 98.9391 76 100C76 101.061 75.5786 102.078 74.8284 102.828C74.0783 103.579 73.0609 104 72 104H44C42.9391 104 41.9217 103.579 41.1716 102.828C40.4214 102.078 40 101.061 40 100ZM32 52C32 53.5913 31.3679 55.1174 30.2426 56.2426C29.1174 57.3679 27.5913 58 26 58C24.4087 58 22.8826 57.3679 21.7574 56.2426C20.6321 55.1174 20 53.5913 20 52C20 50.4087 20.6321 48.8826 21.7574 47.7574C22.8826 46.6321 24.4087 46 26 46C27.5913 46 29.1174 46.6321 30.2426 47.7574C31.3679 48.8826 32 50.4087 32 52ZM32 76C32 77.5913 31.3679 79.1174 30.2426 80.2426C29.1174 81.3679 27.5913 82 26 82C24.4087 82 22.8826 81.3679 21.7574 80.2426C20.6321 79.1174 20 77.5913 20 76C20 74.4087 20.6321 72.8826 21.7574 71.7574C22.8826 70.6321 24.4087 70 26 70C27.5913 70 29.1174 70.6321 30.2426 71.7574C31.3679 72.8826 32 74.4087 32 76ZM26 106C27.5913 106 29.1174 105.368 30.2426 104.243C31.3679 103.117 32 101.591 32 100C32 98.4087 31.3679 96.8826 30.2426 95.7574C29.1174 94.6321 27.5913 94 26 94C24.4087 94 22.8826 94.6321 21.7574 95.7574C20.6321 96.8826 20 98.4087 20 100C20 101.591 20.6321 103.117 21.7574 104.243C22.8826 105.368 24.4087 106 26 106ZM24.68 8C25.5075 5.65938 27.0407 3.63303 29.0681 2.20023C31.0955 0.767422 33.5174 -0.00129984 36 1.64989e-06H60C62.4826 -0.00129984 64.9045 0.767422 66.9319 2.20023C68.9593 3.63303 70.4925 5.65938 71.32 8H84C87.1826 8 90.2348 9.26428 92.4853 11.5147C94.7357 13.7652 96 16.8174 96 20V116C96 119.183 94.7357 122.235 92.4853 124.485C90.2348 126.736 87.1826 128 84 128H12C8.8174 128 5.76515 126.736 3.51472 124.485C1.26428 122.235 0 119.183 0 116V20C0 16.8174 1.26428 13.7652 3.51472 11.5147C5.76515 9.26428 8.8174 8 12 8H24.68ZM36 8C34.9391 8 33.9217 8.42143 33.1716 9.17158C32.4214 9.92172 32 10.9391 32 12C32 13.0609 32.4214 14.0783 33.1716 14.8284C33.9217 15.5786 34.9391 16 36 16H60C61.0609 16 62.0783 15.5786 62.8284 14.8284C63.5786 14.0783 64 13.0609 64 12C64 10.9391 63.5786 9.92172 62.8284 9.17158C62.0783 8.42143 61.0609 8 60 8H36ZM24.68 16H12C10.9391 16 9.92172 16.4214 9.17157 17.1716C8.42143 17.9217 8 18.9391 8 20V116C8 117.061 8.42143 118.078 9.17157 118.828C9.92172 119.579 10.9391 120 12 120H84C85.0609 120 86.0783 119.579 86.8284 118.828C87.5786 118.078 88 117.061 88 116V20C88 18.9391 87.5786 17.9217 86.8284 17.1716C86.0783 16.4214 85.0609 16 84 16H71.32C70.4925 18.3406 68.9593 20.367 66.9319 21.7998C64.9045 23.2326 62.4826 24.0013 60 24H36C33.5174 24.0013 31.0955 23.2326 29.0681 21.7998C27.0407 20.367 25.5075 18.3406 24.68 16Z" fill="white"/>
</svg>
