<svg width="1543" height="204" viewBox="0 0 1543 204" fill="none" xmlns="http://www.w3.org/2000/svg">
<path d="M86.2663 124.392V83.208H162.298V196.968C151.93 198.888 140.026 200.424 126.586 201.576C113.146 202.728 101.242 203.304 90.8743 203.304C65.5303 203.304 46.5223 200.52 33.8503 194.952C21.3703 189.384 12.7303 179.592 7.93025 165.576C3.13025 151.368 0.73025 130.152 0.73025 101.928C0.73025 74.472 3.13025 53.736 7.93025 39.72C12.7303 25.512 21.4663 15.432 34.1383 9.47999C46.8103 3.52799 65.7223 0.551989 90.8743 0.551989C102.97 0.551989 115.738 1.31999 129.178 2.85599C142.81 4.392 153.562 5.92799 161.434 7.46399V49.224C155.29 48.456 146.842 47.592 136.09 46.632C125.338 45.672 116.89 45.192 110.746 45.192C93.0823 45.192 81.0823 46.152 74.7463 48.072C68.4103 49.8 64.2823 54.312 62.3623 61.608C60.4423 68.712 59.4823 82.152 59.4823 101.928C59.4823 119.4 60.1543 132.072 61.4983 139.944C63.0343 147.624 66.1063 152.904 70.7143 155.784C75.3223 158.472 82.9063 159.816 93.4663 159.816L109.306 159.24V124.392H86.2663ZM319.263 201L310.047 167.592H246.111L237.183 201H179.007L238.047 2.85599H319.839L378.879 201H319.263ZM278.943 52.68H276.639L257.631 124.104H298.527L278.943 52.68ZM564.722 201V82.92H562.13L527.858 201H488.402L454.418 82.92H451.826V201H396.53V2.85599H477.746L507.986 105.384H510.29L540.53 2.85599H621.458V201H564.722ZM656.7 201V2.85599H799.836V47.496H715.74V78.888H786.3V122.952H715.74V156.36H799.836V201H656.7ZM907.649 203.304C879.233 203.304 853.889 201.576 831.617 198.12V155.496C857.345 157.608 876.545 158.664 889.217 158.664C897.857 158.664 904.289 158.472 908.513 158.088C912.929 157.512 916.001 156.552 917.729 155.208C919.265 154.056 920.225 152.616 920.609 150.888C920.993 148.968 921.185 146.184 921.185 142.536C921.185 138.312 920.705 135.336 919.745 133.608C918.977 131.688 917.153 130.344 914.273 129.576C911.393 128.616 906.401 127.656 899.297 126.696L864.161 122.376C849.185 120.648 839.009 114.792 833.633 104.808C828.449 94.824 825.857 80.328 825.857 61.32C825.857 44.616 829.121 31.848 835.649 23.016C842.177 13.992 850.913 8.04 861.857 5.16C872.993 2.08799 886.817 0.551989 903.329 0.551989C927.329 0.551989 949.697 2.56799 970.433 6.6V48.648C950.081 46.344 931.169 45.192 913.697 45.192C901.217 45.192 893.345 46.056 890.081 47.784C888.161 48.936 886.817 50.376 886.049 52.104C885.473 53.64 885.185 55.944 885.185 59.016C885.185 63.24 885.473 66.216 886.049 67.944C886.625 69.672 887.969 70.92 890.081 71.688C892.385 72.456 896.225 73.224 901.601 73.992L937.601 78.312C946.433 79.464 953.633 81.384 959.201 84.072C964.769 86.76 969.473 91.464 973.313 98.184C978.113 106.44 980.513 119.496 980.513 137.352C980.513 156.36 977.441 170.664 971.297 180.264C965.345 189.672 957.281 195.912 947.105 198.984C936.929 201.864 923.777 203.304 907.649 203.304ZM1047.4 201V49.8H995.845V2.85599H1158.56V49.8H1106.72V201H1047.4ZM1263.62 203.304C1235.2 203.304 1214.95 200.424 1202.85 194.664C1190.95 188.712 1183.56 179.4 1180.68 166.728C1177.8 153.864 1176.36 132.264 1176.36 101.928C1176.36 71.592 1177.8 50.088 1180.68 37.416C1183.56 24.552 1190.95 15.24 1202.85 9.47999C1214.95 3.52799 1235.2 0.551989 1263.62 0.551989C1292.04 0.551989 1312.2 3.52799 1324.1 9.47999C1336.2 15.24 1343.68 24.552 1346.56 37.416C1349.44 50.088 1350.88 71.592 1350.88 101.928C1350.88 132.264 1349.44 153.864 1346.56 166.728C1343.68 179.4 1336.2 188.712 1324.1 194.664C1312.2 200.424 1292.04 203.304 1263.62 203.304ZM1263.62 158.664C1273.41 158.664 1279.94 157.8 1283.2 156.072C1286.66 154.152 1288.77 149.736 1289.54 142.824C1290.5 135.72 1290.98 122.088 1290.98 101.928C1290.98 81.768 1290.5 68.232 1289.54 61.32C1288.77 54.216 1286.66 49.8 1283.2 48.072C1279.94 46.152 1273.41 45.192 1263.62 45.192C1253.83 45.192 1247.2 46.152 1243.75 48.072C1240.48 49.8 1238.37 54.12 1237.41 61.032C1236.64 67.944 1236.26 81.576 1236.26 101.928C1236.26 122.28 1236.64 135.912 1237.41 142.824C1238.37 149.736 1240.48 154.152 1243.75 156.072C1247.2 157.8 1253.83 158.664 1263.62 158.664ZM1382.61 2.85599H1480.81C1498.09 2.85599 1511.15 5.35199 1519.98 10.344C1529.01 15.336 1534.96 22.632 1537.84 32.232C1540.91 41.832 1542.45 54.792 1542.45 71.112C1542.45 86.472 1541.01 98.952 1538.13 108.552C1535.44 117.96 1529.58 125.448 1520.56 131.016C1511.73 136.392 1498.48 139.08 1480.81 139.08H1441.65V201H1382.61V2.85599ZM1457.49 95.304C1465.55 95.304 1471.21 94.824 1474.48 93.864C1477.93 92.712 1480.14 90.6 1481.1 87.528C1482.25 84.264 1482.83 78.792 1482.83 71.112C1482.83 63.24 1482.25 57.768 1481.1 54.696C1480.14 51.432 1478.03 49.32 1474.77 48.36C1471.5 47.4 1465.74 46.92 1457.49 46.92H1441.65V95.304H1457.49Z" fill="url(#paint0_linear_169_4)"/>
<path d="M86.2663 124.392H81.2663V129.392H86.2663V124.392ZM86.2663 83.208V78.208H81.2663V83.208H86.2663ZM162.298 83.208H167.298V78.208H162.298V83.208ZM162.298 196.968L163.209 201.884L167.298 201.127V196.968H162.298ZM33.8503 194.952L31.813 199.518L31.8259 199.524L31.8389 199.53L33.8503 194.952ZM7.93025 165.576L3.19328 167.176L3.19659 167.186L3.19995 167.196L7.93025 165.576ZM7.93025 39.72L12.6605 41.34L12.6639 41.3302L12.6672 41.3203L7.93025 39.72ZM129.178 2.856L128.611 7.82366L128.618 7.82455L129.178 2.856ZM161.434 7.46399H166.434V3.3453L162.392 2.55653L161.434 7.46399ZM161.434 49.224L160.814 54.1854L166.434 54.8879V49.224H161.434ZM74.7463 48.072L76.0618 52.8958L76.1293 52.8774L76.1963 52.8571L74.7463 48.072ZM62.3623 61.608L67.1891 62.9125L67.1934 62.8965L67.1976 62.8805L62.3623 61.608ZM61.4983 139.944L56.5696 140.785L56.5815 140.855L56.5953 140.925L61.4983 139.944ZM70.7142 155.784L68.0643 160.024L68.129 160.064L68.1949 160.103L70.7142 155.784ZM93.4662 159.816V164.816H93.5571L93.6479 164.813L93.4662 159.816ZM109.306 159.24L109.488 164.237L114.306 164.061V159.24H109.306ZM109.306 124.392H114.306V119.392H109.306V124.392ZM91.2663 124.392V83.208H81.2663V124.392H91.2663ZM86.2663 88.208H162.298V78.208H86.2663V88.208ZM157.298 83.208V196.968H167.298V83.208H157.298ZM161.388 192.052C151.217 193.935 139.479 195.453 126.159 196.594L127.013 206.558C140.573 205.395 152.644 203.841 163.209 201.884L161.388 192.052ZM126.159 196.594C112.822 197.737 101.065 198.304 90.8743 198.304V208.304C101.42 208.304 113.471 207.719 127.013 206.558L126.159 196.594ZM90.8743 198.304C65.7421 198.304 47.5722 195.52 35.8616 190.374L31.8389 199.53C45.4723 205.52 65.3184 208.304 90.8743 208.304V198.304ZM35.8875 190.386C24.7895 185.434 17.053 176.782 12.6605 163.956L3.19995 167.196C8.40751 182.402 17.951 193.334 31.813 199.518L35.8875 190.386ZM12.6672 163.976C8.13342 150.556 5.73025 129.999 5.73025 101.928H-4.26975C-4.26975 130.305 -1.87292 152.18 3.19328 167.176L12.6672 163.976ZM5.73025 101.928C5.73025 74.6369 8.13173 54.5641 12.6605 41.34L3.19995 38.1C-1.87123 52.9079 -4.26975 74.3071 -4.26975 101.928H5.73025ZM12.6672 41.3203C17.066 28.3 24.9188 19.3344 36.2639 14.0056L32.0126 4.95435C18.0137 11.5296 8.39452 22.724 3.19328 38.1197L12.6672 41.3203ZM36.2639 14.0056C47.9344 8.52403 65.9621 5.55199 90.8743 5.55199V-4.44801C65.4824 -4.44801 45.6861 -1.46805 32.0126 4.95435L36.2639 14.0056ZM90.8743 5.55199C102.76 5.55199 115.337 6.30672 128.611 7.82365L129.746 -2.11167C116.139 -3.66673 103.181 -4.44801 90.8743 -4.44801V5.55199ZM128.618 7.82455C142.196 9.35445 152.796 10.8729 160.477 12.3714L162.392 2.55653C154.328 0.983124 143.424 -0.570457 129.738 -2.11256L128.618 7.82455ZM156.434 7.46399V49.224H166.434V7.46399H156.434ZM162.054 44.2626C155.825 43.4839 147.309 42.6138 136.535 41.6518L135.646 51.6122C146.375 52.5702 154.756 53.4281 160.814 54.1854L162.054 44.2626ZM136.535 41.6518C125.728 40.6869 117.109 40.192 110.746 40.192V50.192C116.671 50.192 124.949 50.6571 135.646 51.6122L136.535 41.6518ZM110.746 40.192C93.147 40.192 80.4376 41.1228 73.2962 43.2869L76.1963 52.8571C81.727 51.1812 93.0175 50.192 110.746 50.192V40.192ZM73.4307 43.2482C65.0849 45.5243 59.8205 51.6196 57.5269 60.3355L67.1976 62.8805C68.744 57.0044 71.7356 54.0757 76.0618 52.8958L73.4307 43.2482ZM57.5354 60.3035C55.4184 68.1364 54.4823 82.2124 54.4823 101.928H64.4823C64.4823 82.0916 65.4661 69.2875 67.1891 62.9125L57.5354 60.3035ZM54.4823 101.928C54.4823 119.431 55.1492 132.466 56.5696 140.785L66.4269 139.103C65.1593 131.678 64.4823 119.369 64.4823 101.928H54.4823ZM56.5953 140.925C58.2807 149.351 61.8528 156.142 68.0643 160.024L73.3643 151.544C70.3597 149.666 67.7878 145.897 66.4012 138.963L56.5953 140.925ZM68.1949 160.103C74.009 163.494 82.7326 164.816 93.4662 164.816V154.816C83.0799 154.816 76.6355 153.45 73.2336 151.465L68.1949 160.103ZM93.6479 164.813L109.488 164.237L109.125 154.243L93.2846 154.819L93.6479 164.813ZM114.306 159.24V124.392H104.306V159.24H114.306ZM109.306 119.392H86.2663V129.392H109.306V119.392ZM319.263 201L314.443 202.33L315.455 206H319.263V201ZM310.047 167.592L314.867 166.262L313.854 162.592H310.047V167.592ZM246.111 167.592V162.592H242.271L241.28 166.301L246.111 167.592ZM237.183 201V206H241.022L242.013 202.291L237.183 201ZM179.007 201L174.215 199.572L172.3 206H179.007V201ZM238.047 2.856V-2.144H234.319L233.255 1.4282L238.047 2.856ZM319.839 2.856L324.631 1.4282L323.566 -2.144H319.839V2.856ZM378.879 201V206H385.586L383.671 199.572L378.879 201ZM278.943 52.68L283.765 51.3578L282.756 47.68H278.943V52.68ZM276.639 52.68V47.68H272.795L271.807 51.3941L276.639 52.68ZM257.631 124.104L252.799 122.818L251.126 129.104H257.631V124.104ZM298.527 124.104V129.104H305.082L303.349 122.782L298.527 124.104ZM324.083 199.67L314.867 166.262L305.227 168.922L314.443 202.33L324.083 199.67ZM310.047 162.592H246.111V172.592H310.047V162.592ZM241.28 166.301L232.352 199.709L242.013 202.291L250.941 168.883L241.28 166.301ZM237.183 196H179.007V206H237.183V196ZM183.799 202.428L242.839 4.28378L233.255 1.4282L174.215 199.572L183.799 202.428ZM238.047 7.856H319.839V-2.144H238.047V7.856ZM315.047 4.28378L374.087 202.428L383.671 199.572L324.631 1.4282L315.047 4.28378ZM378.879 196H319.263V206H378.879V196ZM278.943 47.68H276.639V57.68H278.943V47.68ZM271.807 51.3941L252.799 122.818L262.463 125.39L281.471 53.9659L271.807 51.3941ZM257.631 129.104H298.527V119.104H257.631V129.104ZM303.349 122.782L283.765 51.3578L274.121 54.0022L293.705 125.426L303.349 122.782ZM564.722 201H559.722V206H564.722V201ZM564.722 82.92H569.722V77.92H564.722V82.92ZM562.13 82.92V77.92H558.375L557.328 81.5263L562.13 82.92ZM527.858 201V206H531.613L532.66 202.394L527.858 201ZM488.402 201L483.597 202.383L484.638 206H488.402V201ZM454.418 82.92L459.223 81.5371L458.182 77.92H454.418V82.92ZM451.826 82.92V77.92H446.826V82.92H451.826ZM451.826 201V206H456.826V201H451.826ZM396.53 201H391.53V206H396.53V201ZM396.53 2.856V-2.144H391.53V2.856H396.53ZM477.746 2.856L482.542 1.44151L481.484 -2.144H477.746V2.856ZM507.986 105.384L503.19 106.798L504.248 110.384H507.986V105.384ZM510.29 105.384V110.384H514.028L515.086 106.798L510.29 105.384ZM540.53 2.856V-2.144H536.792L535.734 1.44151L540.53 2.856ZM621.458 2.856H626.458V-2.144H621.458V2.856ZM621.458 201V206H626.458V201H621.458ZM569.722 201V82.92H559.722V201H569.722ZM564.722 77.92H562.13V87.92H564.722V77.92ZM557.328 81.5263L523.056 199.606L532.66 202.394L566.932 84.3137L557.328 81.5263ZM527.858 196H488.402V206H527.858V196ZM493.207 199.617L459.223 81.5371L449.613 84.3029L483.597 202.383L493.207 199.617ZM454.418 77.92H451.826V87.92H454.418V77.92ZM446.826 82.92V201H456.826V82.92H446.826ZM451.826 196H396.53V206H451.826V196ZM401.53 201V2.856H391.53V201H401.53ZM396.53 7.856H477.746V-2.144H396.53V7.856ZM472.95 4.27047L503.19 106.798L512.782 103.97L482.542 1.44151L472.95 4.27047ZM507.986 110.384H510.29V100.384H507.986V110.384ZM515.086 106.798L545.326 4.27047L535.734 1.44151L505.494 103.97L515.086 106.798ZM540.53 7.856H621.458V-2.144H540.53V7.856ZM616.458 2.856V201H626.458V2.856H616.458ZM621.458 196H564.722V206H621.458V196ZM656.7 201H651.7V206H656.7V201ZM656.7 2.856V-2.144H651.7V2.856H656.7ZM799.836 2.856H804.836V-2.144H799.836V2.856ZM799.836 47.496V52.496H804.836V47.496H799.836ZM715.74 47.496V42.496H710.74V47.496H715.74ZM715.74 78.888H710.74V83.888H715.74V78.888ZM786.3 78.888H791.3V73.888H786.3V78.888ZM786.3 122.952V127.952H791.3V122.952H786.3ZM715.74 122.952V117.952H710.74V122.952H715.74ZM715.74 156.36H710.74V161.36H715.74V156.36ZM799.836 156.36H804.836V151.36H799.836V156.36ZM799.836 201V206H804.836V201H799.836ZM661.7 201V2.856H651.7V201H661.7ZM656.7 7.856H799.836V-2.144H656.7V7.856ZM794.836 2.856V47.496H804.836V2.856H794.836ZM799.836 42.496H715.74V52.496H799.836V42.496ZM710.74 47.496V78.888H720.74V47.496H710.74ZM715.74 83.888H786.3V73.888H715.74V83.888ZM781.3 78.888V122.952H791.3V78.888H781.3ZM786.3 117.952H715.74V127.952H786.3V117.952ZM710.74 122.952V156.36H720.74V122.952H710.74ZM715.74 161.36H799.836V151.36H715.74V161.36ZM794.836 156.36V201H804.836V156.36H794.836ZM799.836 196H656.7V206H799.836V196ZM831.617 198.12H826.617V202.404L830.85 203.061L831.617 198.12ZM831.617 155.496L832.026 150.513L826.617 150.069V155.496H831.617ZM908.513 158.088L908.966 163.067L909.063 163.059L909.16 163.046L908.513 158.088ZM917.729 155.208L914.729 151.208L914.694 151.234L914.659 151.261L917.729 155.208ZM920.609 150.888L925.49 151.973L925.501 151.921L925.512 151.869L920.609 150.888ZM919.745 133.608L915.103 135.465L915.22 135.759L915.374 136.036L919.745 133.608ZM914.273 129.576L912.692 134.319L912.837 134.368L912.985 134.407L914.273 129.576ZM899.297 126.696L899.967 121.741L899.937 121.737L899.907 121.733L899.297 126.696ZM864.161 122.376L864.771 117.413L864.753 117.411L864.734 117.409L864.161 122.376ZM833.633 104.808L829.195 107.112L829.213 107.145L829.231 107.178L833.633 104.808ZM835.649 23.016L839.67 25.9879L839.685 25.9673L839.7 25.9466L835.649 23.016ZM861.857 5.16L863.129 9.99537L863.158 9.98784L863.187 9.97996L861.857 5.16ZM970.433 6.6H975.433V2.47858L971.387 1.69192L970.433 6.6ZM970.433 48.648L969.871 53.6163L975.433 54.246V48.648H970.433ZM890.081 47.784L887.742 43.3651L887.623 43.4277L887.509 43.4965L890.081 47.784ZM886.049 52.104L881.48 50.0733L881.42 50.2092L881.367 50.3484L886.049 52.104ZM890.081 71.688L888.372 76.387L888.436 76.41L888.5 76.4314L890.081 71.688ZM901.601 73.992L900.894 78.9417L900.95 78.9497L901.005 78.9564L901.601 73.992ZM937.601 78.312L938.248 73.354L938.222 73.3507L938.197 73.3476L937.601 78.312ZM959.201 84.072L961.375 79.5692V79.5692L959.201 84.072ZM973.313 98.184L968.972 100.665L968.981 100.681L968.99 100.697L973.313 98.184ZM971.297 180.264L967.086 177.569L967.079 177.58L967.072 177.591L971.297 180.264ZM947.105 198.984L948.467 203.795L948.508 203.783L948.55 203.771L947.105 198.984ZM907.649 198.304C879.427 198.304 854.347 196.587 832.384 193.179L830.85 203.061C853.431 206.565 879.039 208.304 907.649 208.304V198.304ZM836.617 198.12V155.496H826.617V198.12H836.617ZM831.208 160.479C856.963 162.593 876.331 163.664 889.217 163.664V153.664C876.759 153.664 857.727 152.623 832.026 150.513L831.208 160.479ZM889.217 163.664C897.887 163.664 904.506 163.473 908.966 163.067L908.06 153.109C904.072 153.471 897.827 153.664 889.217 153.664V163.664ZM909.16 163.046C913.719 162.451 917.95 161.371 920.799 159.155L914.659 151.261C914.052 151.733 912.139 152.573 907.866 153.13L909.16 163.046ZM920.729 159.208C923.133 157.405 924.824 154.968 925.49 151.973L915.728 149.803C915.626 150.264 915.397 150.707 914.729 151.208L920.729 159.208ZM925.512 151.869C925.994 149.459 926.185 146.283 926.185 142.536H916.185C916.185 146.085 915.992 148.477 915.706 149.907L925.512 151.869ZM926.185 142.536C926.185 138.223 925.745 134.112 924.116 131.18L915.374 136.036C915.665 136.56 916.185 138.401 916.185 142.536H926.185ZM924.387 131.751C922.806 127.797 919.257 125.73 915.561 124.745L912.985 134.407C914.001 134.678 914.558 134.981 914.835 135.185C915.071 135.359 915.097 135.452 915.103 135.465L924.387 131.751ZM915.854 124.833C912.485 123.709 907.077 122.702 899.967 121.741L898.627 131.651C905.725 132.61 910.301 133.523 912.692 134.319L915.854 124.833ZM899.907 121.733L864.771 117.413L863.551 127.339L898.687 131.659L899.907 121.733ZM864.734 117.409C850.794 115.8 842.392 110.529 838.035 102.438L829.231 107.178C835.626 119.055 847.576 125.496 863.588 127.343L864.734 117.409ZM838.07 102.504C833.428 93.5635 830.857 80.0096 830.857 61.32H820.857C820.857 80.6463 823.47 96.0845 829.195 107.112L838.07 102.504ZM830.857 61.32C830.857 45.1599 834.032 33.6157 839.67 25.9879L831.628 20.044C824.21 30.0802 820.857 44.0721 820.857 61.32H830.857ZM839.7 25.9466C845.538 17.8761 853.285 12.5861 863.129 9.99537L860.585 0.324623C848.541 3.49385 838.816 10.1079 831.598 20.0854L839.7 25.9466ZM863.187 9.97996C873.748 7.06645 887.091 5.55199 903.329 5.55199V-4.44801C886.543 -4.44801 872.238 -2.89047 860.527 0.340034L863.187 9.97996ZM903.329 5.55199C927.051 5.55199 949.096 7.54481 969.479 11.5081L971.387 1.69192C950.298 -2.40882 927.607 -4.44801 903.329 -4.44801V5.55199ZM965.433 6.6V48.648H975.433V6.6H965.433ZM970.995 43.6797C950.488 41.3581 931.386 40.192 913.697 40.192V50.192C930.952 50.192 949.674 51.3299 969.871 53.6163L970.995 43.6797ZM913.697 40.192C907.366 40.192 902.077 40.41 897.888 40.8698C893.877 41.31 890.272 42.0255 887.742 43.3651L892.42 52.2029C893.154 51.8145 895.117 51.234 898.979 50.8102C902.661 50.4059 907.548 50.192 913.697 50.192V40.192ZM887.509 43.4965C884.873 45.0778 882.738 47.2427 881.48 50.0733L890.618 54.1347C890.896 53.5093 891.449 52.7942 892.654 52.0715L887.509 43.4965ZM881.367 50.3484C880.47 52.7417 880.185 55.7737 880.185 59.016H890.185C890.185 56.1143 890.476 54.5383 890.731 53.8596L881.367 50.3484ZM880.185 59.016C880.185 63.2565 880.449 66.9568 881.306 69.5251L890.792 66.3629C890.497 65.4752 890.185 63.2235 890.185 59.016H880.185ZM881.306 69.5251C882.476 73.0374 885.196 75.2318 888.372 76.387L891.79 66.989C891.224 66.7833 890.977 66.5912 890.891 66.512C890.829 66.4547 890.813 66.4253 890.792 66.3629L881.306 69.5251ZM888.5 76.4314C891.265 77.3532 895.493 78.1701 900.894 78.9417L902.308 69.0423C896.957 68.2779 893.505 67.5588 891.662 66.9446L888.5 76.4314ZM901.005 78.9564L937.005 83.2764L938.197 73.3476L902.197 69.0276L901.005 78.9564ZM936.954 83.27C945.469 84.3806 952.102 86.1969 957.027 88.5748L961.375 79.5692C955.164 76.571 947.397 74.5474 938.248 73.354L936.954 83.27ZM957.027 88.5748C961.479 90.7239 965.506 94.6003 968.972 100.665L977.654 95.7033C973.44 88.3277 968.059 82.7961 961.375 79.5692L957.027 88.5748ZM968.99 100.697C973.107 107.777 975.513 119.732 975.513 137.352H985.513C985.513 119.26 983.119 105.103 977.636 95.6709L968.99 100.697ZM975.513 137.352C975.513 155.975 972.475 169.147 967.086 177.569L975.508 182.959C982.407 172.181 985.513 156.745 985.513 137.352H975.513ZM967.072 177.591C961.729 186.035 954.627 191.49 945.66 194.197L948.55 203.771C959.935 200.334 968.961 193.309 975.522 182.937L967.072 177.591ZM945.743 194.173C936.178 196.88 923.531 198.304 907.649 198.304V208.304C924.023 208.304 937.68 206.848 948.467 203.795L945.743 194.173ZM1047.4 201H1042.4V206H1047.4V201ZM1047.4 49.8H1052.4V44.8H1047.4V49.8ZM995.844 49.8H990.844V54.8H995.844V49.8ZM995.844 2.856V-2.144H990.844V2.856H995.844ZM1158.56 2.856H1163.56V-2.144H1158.56V2.856ZM1158.56 49.8V54.8H1163.56V49.8H1158.56ZM1106.72 49.8V44.8H1101.72V49.8H1106.72ZM1106.72 201V206H1111.72V201H1106.72ZM1052.4 201V49.8H1042.4V201H1052.4ZM1047.4 44.8H995.844V54.8H1047.4V44.8ZM1000.84 49.8V2.856H990.844V49.8H1000.84ZM995.844 7.856H1158.56V-2.144H995.844V7.856ZM1153.56 2.856V49.8H1163.56V2.856H1153.56ZM1158.56 44.8H1106.72V54.8H1158.56V44.8ZM1101.72 49.8V201H1111.72V49.8H1101.72ZM1106.72 196H1047.4V206H1106.72V196ZM1202.85 194.664L1200.62 199.136L1200.66 199.158L1200.7 199.178L1202.85 194.664ZM1180.68 166.728L1175.8 167.82L1175.8 167.828L1175.8 167.836L1180.68 166.728ZM1180.68 37.416L1185.55 38.5241L1185.55 38.5162L1185.55 38.5084L1180.68 37.416ZM1202.85 9.48L1205.03 13.9808L1205.04 13.9736L1205.06 13.9663L1202.85 9.48ZM1324.1 9.48L1321.86 13.9521L1321.91 13.9736L1321.95 13.9943L1324.1 9.48ZM1346.56 37.416L1341.68 38.5084L1341.69 38.5162L1341.69 38.5241L1346.56 37.416ZM1346.56 166.728L1351.44 167.836L1351.44 167.828L1351.44 167.82L1346.56 166.728ZM1324.1 194.664L1326.28 199.165L1326.29 199.158L1326.31 199.15L1324.1 194.664ZM1283.2 156.072L1285.54 160.491L1285.59 160.467L1285.63 160.443L1283.2 156.072ZM1289.54 142.824L1284.58 142.154L1284.58 142.213L1284.57 142.272L1289.54 142.824ZM1289.54 61.32L1284.57 61.8574L1284.58 61.9328L1284.59 62.0078L1289.54 61.32ZM1283.2 48.072L1280.67 52.3817L1280.81 52.468L1280.97 52.5441L1283.2 48.072ZM1243.75 48.072L1246.09 52.4909L1246.13 52.4673L1246.18 52.4428L1243.75 48.072ZM1237.41 61.032L1232.46 60.3441L1232.45 60.4119L1232.44 60.4798L1237.41 61.032ZM1237.41 142.824L1232.44 143.376L1232.45 143.444L1232.46 143.512L1237.41 142.824ZM1243.75 156.072L1241.21 160.382L1241.36 160.468L1241.51 160.544L1243.75 156.072ZM1263.62 198.304C1235.3 198.304 1216.02 195.395 1205 190.15L1200.7 199.178C1213.88 205.453 1235.11 208.304 1263.62 208.304V198.304ZM1205.09 190.192C1194.48 184.891 1188.09 176.792 1185.55 165.62L1175.8 167.836C1179.02 182.008 1187.41 192.533 1200.62 199.136L1205.09 190.192ZM1185.55 165.636C1182.81 153.359 1181.36 132.246 1181.36 101.928H1171.36C1171.36 132.282 1172.78 154.369 1175.8 167.82L1185.55 165.636ZM1181.36 101.928C1181.36 71.6037 1182.81 50.5978 1185.55 38.5241L1175.8 36.3079C1172.78 49.5782 1171.36 71.5803 1171.36 101.928H1181.36ZM1185.55 38.5084C1188.1 27.1387 1194.49 19.0788 1205.03 13.9808L1200.67 4.97919C1187.4 11.4012 1179.01 21.9653 1175.8 36.3236L1185.55 38.5084ZM1205.06 13.9663C1216.05 8.55762 1235.3 5.55199 1263.62 5.55199V-4.44801C1235.1 -4.44801 1213.84 -1.50163 1200.64 4.99371L1205.06 13.9663ZM1263.62 5.55199C1291.95 5.55199 1311.08 8.561 1321.86 13.9521L1326.34 5.00786C1313.31 -1.50502 1292.12 -4.44801 1263.62 -4.44801V5.55199ZM1321.95 13.9943C1332.68 19.1063 1339.15 27.1722 1341.68 38.5084L1351.44 36.3236C1348.22 21.9318 1339.71 11.3737 1326.25 4.96569L1321.95 13.9943ZM1341.69 38.5241C1344.43 50.5978 1345.88 71.6037 1345.88 101.928H1355.88C1355.88 71.5803 1354.45 49.5782 1351.44 36.3079L1341.69 38.5241ZM1345.88 101.928C1345.88 132.246 1344.43 153.359 1341.68 165.636L1351.44 167.82C1354.45 154.369 1355.88 132.282 1355.88 101.928H1345.88ZM1341.69 165.62C1339.16 176.759 1332.69 184.863 1321.89 190.178L1326.31 199.15C1339.7 192.561 1348.21 182.041 1351.44 167.836L1341.69 165.62ZM1321.92 190.163C1311.12 195.392 1291.95 198.304 1263.62 198.304V208.304C1292.12 208.304 1313.27 205.456 1326.28 199.165L1321.92 190.163ZM1263.62 163.664C1268.64 163.664 1272.96 163.444 1276.52 162.973C1279.98 162.514 1283.13 161.77 1285.54 160.491L1280.86 151.653C1280.02 152.102 1278.27 152.654 1275.2 153.059C1272.23 153.452 1268.39 153.664 1263.62 153.664V163.664ZM1285.63 160.443C1291.3 157.294 1293.69 150.705 1294.51 143.376L1284.57 142.272C1283.85 148.767 1282.02 151.01 1280.78 151.701L1285.63 160.443ZM1294.49 143.494C1295.51 136.006 1295.98 122.048 1295.98 101.928H1285.98C1285.98 122.128 1285.49 135.434 1284.58 142.154L1294.49 143.494ZM1295.98 101.928C1295.98 81.8165 1295.51 67.9402 1294.49 60.6322L1284.59 62.0078C1285.49 68.5238 1285.98 81.7195 1285.98 101.928H1295.98ZM1294.51 60.7826C1293.71 53.3796 1291.35 46.5535 1285.44 43.5999L1280.97 52.5441C1281.97 53.0465 1283.83 55.0524 1284.57 61.8574L1294.51 60.7826ZM1285.74 43.7623C1283.28 42.3181 1280.09 41.4798 1276.59 40.9652C1273 40.4373 1268.65 40.192 1263.62 40.192V50.192C1268.38 50.192 1272.19 50.4267 1275.13 50.8588C1278.16 51.3042 1279.86 51.9058 1280.67 52.3817L1285.74 43.7623ZM1263.62 40.192C1258.58 40.192 1254.22 40.4375 1250.59 40.9637C1247.03 41.479 1243.82 42.3111 1241.32 43.7012L1246.18 52.4428C1247.13 51.9129 1248.96 51.305 1252.02 50.8603C1255.02 50.4265 1258.86 50.192 1263.62 50.192V40.192ZM1241.41 43.6531C1235.85 46.5945 1233.45 53.1716 1232.46 60.3441L1242.36 61.7198C1243.29 55.0684 1245.11 53.0055 1246.09 52.4909L1241.41 43.6531ZM1232.44 60.4798C1231.64 67.7112 1231.26 81.6174 1231.26 101.928H1241.26C1241.26 81.5346 1241.65 68.1768 1242.38 61.5842L1232.44 60.4798ZM1231.26 101.928C1231.26 122.239 1231.64 136.145 1232.44 143.376L1242.38 142.272C1241.65 135.679 1241.26 122.321 1241.26 101.928H1231.26ZM1232.46 143.512C1233.46 150.742 1235.86 157.233 1241.21 160.382L1246.28 151.762C1245.11 151.071 1243.28 148.73 1242.36 142.136L1232.46 143.512ZM1241.51 160.544C1243.97 161.775 1247.14 162.514 1250.66 162.974C1254.26 163.444 1258.6 163.664 1263.62 163.664V153.664C1258.85 153.664 1254.98 153.452 1251.95 153.058C1248.85 152.654 1246.98 152.097 1245.98 151.6L1241.51 160.544ZM1382.61 2.856V-2.144H1377.61V2.856H1382.61ZM1519.98 10.344L1517.52 14.6968L1517.54 14.7081L1517.56 14.7192L1519.98 10.344ZM1537.84 32.232L1533.05 33.6687L1533.06 33.7124L1533.08 33.7559L1537.84 32.232ZM1538.13 108.552L1533.34 107.115L1533.33 107.147L1533.32 107.178L1538.13 108.552ZM1520.56 131.016L1523.16 135.287L1523.17 135.279L1523.18 135.271L1520.56 131.016ZM1441.65 139.08V134.08H1436.65V139.08H1441.65ZM1441.65 201V206H1446.65V201H1441.65ZM1382.61 201H1377.61V206H1382.61V201ZM1474.48 93.864L1475.89 98.6608L1475.97 98.6356L1476.06 98.6074L1474.48 93.864ZM1481.1 87.528L1476.39 85.8639L1476.36 85.9497L1476.33 86.0366L1481.1 87.528ZM1481.1 54.696L1476.31 56.1068L1476.36 56.2813L1476.42 56.4516L1481.1 54.696ZM1474.77 48.36L1476.18 43.5632L1474.77 48.36ZM1441.65 46.92V41.92H1436.65V46.92H1441.65ZM1441.65 95.304H1436.65V100.304H1441.65V95.304ZM1382.61 7.856H1480.81V-2.144H1382.61V7.856ZM1480.81 7.856C1497.76 7.856 1509.8 10.3305 1517.52 14.6968L1522.44 5.99117C1512.5 0.373436 1498.42 -2.144 1480.81 -2.144V7.856ZM1517.56 14.7192C1525.48 19.0992 1530.56 25.3599 1533.05 33.6687L1542.63 30.7953C1539.36 19.9041 1532.53 11.5728 1522.4 5.96881L1517.56 14.7192ZM1533.08 33.7559C1535.92 42.6543 1537.45 55.031 1537.45 71.112H1547.45C1547.45 54.553 1545.9 41.0097 1542.6 30.7081L1533.08 33.7559ZM1537.45 71.112C1537.45 86.2151 1536.02 98.1595 1533.34 107.115L1542.92 109.989C1545.99 99.7445 1547.45 86.7289 1547.45 71.112H1537.45ZM1533.32 107.178C1531 115.282 1525.99 121.788 1517.93 126.761L1523.18 135.271C1533.17 129.108 1539.87 120.638 1542.93 109.926L1533.32 107.178ZM1517.96 126.745C1510.29 131.415 1498.13 134.08 1480.81 134.08V144.08C1498.82 144.08 1513.17 141.369 1523.16 135.287L1517.96 126.745ZM1480.81 134.08H1441.65V144.08H1480.81V134.08ZM1436.65 139.08V201H1446.65V139.08H1436.65ZM1441.65 196H1382.61V206H1441.65V196ZM1387.61 201V2.856H1377.61V201H1387.61ZM1457.49 100.304C1465.55 100.304 1471.87 99.8441 1475.89 98.6608L1473.07 89.0672C1470.56 89.8039 1465.55 90.304 1457.49 90.304V100.304ZM1476.06 98.6074C1480.81 97.0245 1484.37 93.8445 1485.87 89.0194L1476.33 86.0366C1475.92 87.3555 1475.06 88.3995 1472.9 89.1206L1476.06 98.6074ZM1485.82 89.1921C1487.28 85.0588 1487.83 78.8383 1487.83 71.112H1477.83C1477.83 78.7457 1477.23 83.4692 1476.39 85.8639L1485.82 89.1921ZM1487.83 71.112C1487.83 63.2485 1487.29 56.9489 1485.78 52.9404L1476.42 56.4516C1477.22 58.5871 1477.83 63.2315 1477.83 71.112H1487.83ZM1485.9 53.2852C1484.46 48.3903 1481.07 45.0028 1476.18 43.5632L1473.36 53.1568C1474.99 53.6371 1475.82 54.4737 1476.31 56.1068L1485.9 53.2852ZM1476.18 43.5632C1472.15 42.3783 1465.73 41.92 1457.49 41.92V51.92C1465.75 51.92 1470.86 52.4217 1473.36 53.1568L1476.18 43.5632ZM1457.49 41.92H1441.65V51.92H1457.49V41.92ZM1436.65 46.92V95.304H1446.65V46.92H1436.65ZM1441.65 100.304H1457.49V90.304H1441.65V100.304Z" fill="white"/>
<defs>
<linearGradient id="paint0_linear_169_4" x1="768.5" y1="-100" x2="768.5" y2="302" gradientUnits="userSpaceOnUse">
<stop stop-color="#27E897"/>
<stop offset="1" stop-color="#2BC0E0"/>
</linearGradient>
</defs>
</svg>
