<svg width="130" height="129" viewBox="0 0 130 129" fill="none" xmlns="http://www.w3.org/2000/svg">
<path d="M72.0571 1.52929C77.3582 -0.509763 83.2274 -0.509763 88.5285 1.52929L114.995 11.6997C119.43 13.4126 122.351 17.6643 122.351 22.4131V81.9062C122.351 82.4721 122.305 83.038 122.221 83.5885C121.639 76.7568 119.021 70.257 114.704 64.93V22.4131C114.704 21.6394 114.47 20.8838 114.031 20.2462C113.593 19.6086 112.972 19.1189 112.249 18.842L85.7833 8.66388C82.2492 7.30451 78.3364 7.30451 74.8023 8.66388L48.3286 18.842C47.6076 19.1202 46.9879 19.6103 46.551 20.2478C46.1142 20.8853 45.8808 21.6403 45.8816 22.4131V30.8247C43.3427 30.5048 40.7736 30.5048 38.2347 30.8247V22.4131C38.235 20.0941 38.9381 17.8298 40.2514 15.9186C41.5647 14.0074 43.4264 12.5391 45.591 11.7074L72.0494 1.52929H72.0571ZM81.0575 52.8479C79.866 51.5634 78.3958 50.5692 76.7599 49.942L50.2939 39.764C44.9927 37.7249 39.1236 37.7249 33.8224 39.764L7.35635 49.9344C5.1905 50.7666 3.32794 52.236 2.01457 54.1487C0.701196 56.0615 -0.00123792 58.3275 1.63772e-06 60.6477V97.2001C0.000308605 99.519 0.703463 101.783 2.01674 103.695C3.33001 105.606 5.19172 107.074 7.35635 107.906L33.8147 118.084C39.1182 120.125 44.9904 120.125 50.2939 118.084L65.1595 112.364C63.11 110.555 61.2824 108.509 59.7149 106.269L47.5486 110.949C44.0145 112.309 40.1018 112.309 36.5676 110.949L10.094 100.771C9.37296 100.493 8.75319 100.003 8.31636 99.3653C7.87952 98.7278 7.64613 97.9729 7.64694 97.2001V60.6477C7.64613 59.8749 7.87952 59.12 8.31636 58.4825C8.75319 57.845 9.37296 57.3548 10.094 57.0766L36.5676 46.8986C40.1018 45.5392 44.0145 45.5392 47.5486 46.8986L71.7435 56.2049C74.6688 54.6397 77.8064 53.5088 81.0575 52.8479ZM66.5054 59.6536C65.856 59.5551 65.1921 59.6262 64.5784 59.8601L42.0581 68.5241L19.5303 59.8601C18.5832 59.4961 17.5302 59.5232 16.6031 59.9355C15.6759 60.3478 14.9506 61.1115 14.5865 62.0586C14.2225 63.0057 14.2496 64.0587 14.6619 64.9858C15.0742 65.9129 15.8379 66.6383 16.785 67.0023L38.2347 75.2381V94.279C38.2347 95.293 38.6375 96.2655 39.3545 96.9826C40.0716 97.6996 41.0441 98.1024 42.0581 98.1024C43.0722 98.1024 44.0447 97.6996 44.7617 96.9826C45.4788 96.2655 45.8816 95.293 45.8816 94.279V75.2381L57.3214 70.8335C59.5578 66.495 62.6878 62.6796 66.5054 59.6383V59.6536ZM102.813 21.6254C103.284 21.4303 103.79 21.3315 104.3 21.3349C104.81 21.3382 105.315 21.4436 105.784 21.6449C106.252 21.8462 106.676 22.1392 107.03 22.5068C107.384 22.8744 107.66 23.3091 107.844 23.7852C108.027 24.2614 108.113 24.7694 108.097 25.2793C108.081 25.7892 107.963 26.2907 107.75 26.7544C107.537 27.218 107.233 27.6342 106.857 27.9787C106.48 28.3232 106.039 28.5888 105.558 28.76L84.4069 36.8964C81.7563 37.9159 78.8217 37.9159 76.1711 36.8964L55.0197 28.76C54.0736 28.395 53.3112 27.669 52.9004 26.7419C52.4895 25.8148 52.4638 24.7624 52.8288 23.8163C53.1939 22.8702 53.9198 22.1078 54.847 21.697C55.7741 21.2861 56.8265 21.2604 57.7726 21.6254L78.9164 29.7618C79.8022 30.1036 80.7834 30.1036 81.6693 29.7618L102.813 21.6254ZM109.374 102.606C113.426 97.1874 115.276 90.4346 114.55 83.707C113.824 76.9795 110.576 70.7766 105.461 66.3468C100.346 61.917 93.7432 59.589 86.981 59.8314C80.2187 60.0738 73.7993 62.8686 69.0146 67.6533C64.2299 72.438 61.4351 78.8575 61.1927 85.6197C60.9503 92.382 63.2782 98.985 67.7081 104.1C72.1379 109.215 78.3408 112.462 85.0683 113.188C91.7958 113.914 98.5486 112.065 103.968 108.013L123.467 127.513C123.822 127.868 124.244 128.15 124.708 128.343C125.172 128.535 125.669 128.635 126.172 128.635C126.674 128.635 127.172 128.537 127.636 128.345C128.1 128.153 128.522 127.871 128.878 127.516C129.233 127.161 129.515 126.74 129.708 126.276C129.9 125.812 130 125.314 130 124.812C130 124.31 129.902 123.812 129.71 123.348C129.518 122.884 129.236 122.462 128.881 122.106L109.382 102.606H109.374ZM107.057 86.5708C107.057 91.6411 105.043 96.5036 101.458 100.089C97.8725 103.674 93.01 105.688 87.9397 105.688C82.8695 105.688 78.0069 103.674 74.4217 100.089C70.8365 96.5036 68.8224 91.6411 68.8224 86.5708C68.8224 81.5006 70.8365 76.638 74.4217 73.0528C78.0069 69.4677 82.8695 67.4535 87.9397 67.4535C93.01 67.4535 97.8725 69.4677 101.458 73.0528C105.043 76.638 107.057 81.5006 107.057 86.5708Z" fill="white"/>
</svg>
