<svg width="133" height="98" viewBox="0 0 133 98" fill="none" xmlns="http://www.w3.org/2000/svg">
<path fill-rule="evenodd" clip-rule="evenodd" d="M2.52859 42.2966L14.7791 46.3788V77.5813C14.7791 78.3495 15.0186 79.0986 15.4642 79.7243C15.9098 80.35 16.5394 80.8213 17.2654 81.0725L65.2624 97.686C65.9976 97.9483 66.8177 97.9815 67.6157 97.7266L67.6674 97.7118L67.7228 97.6934L115.735 81.0725C116.461 80.8213 117.09 80.35 117.536 79.7243C117.981 79.0986 118.221 78.3495 118.221 77.5813V46.3788L130.471 42.2966C131.037 42.1086 131.548 41.7869 131.962 41.3588C132.376 40.9306 132.68 40.4088 132.849 39.8376C133.017 39.2665 133.046 38.6631 132.931 38.0787C132.816 37.4944 132.562 36.9465 132.189 36.4816L117.412 18.0099C116.974 17.4642 116.389 17.0542 115.727 16.8277L67.7081 0.203099C66.9254 -0.0676998 66.0746 -0.0676998 65.2919 0.203099L17.2728 16.8277C16.6105 17.054 16.0262 17.4641 15.5881 18.0099L0.810719 36.4816C0.438469 36.9465 0.184105 37.4944 0.0693006 38.0787C-0.0455041 38.6631 -0.017346 39.2665 0.151375 39.8376C0.320097 40.4088 0.62438 40.9306 1.0383 41.3588C1.45222 41.7869 1.96351 42.1086 2.52859 42.2966ZM56.5954 57.5321L62.8056 48.6656V89.019L22.1678 74.9509V48.8392L52.4024 58.9174C53.1576 59.1685 53.9738 59.1689 54.7294 58.9186C55.4849 58.6683 56.1394 58.1807 56.5954 57.5284V57.5321ZM29.7671 20.3188L66.5 33.0348L103.233 20.3188L66.5 7.60289L29.7671 20.3188ZM76.4046 57.5321L70.1944 48.6693V89.0227L110.832 74.9546V48.8392L80.5976 58.9174C79.8424 59.1685 79.0262 59.1689 78.2706 58.9186C77.5151 58.6683 76.8606 58.1807 76.4046 57.5284V57.5321ZM19.7295 24.6634L9.89144 36.9619L30.251 43.7484L52.1216 51.0374L60.6666 38.8349L60.1679 38.6613L19.7295 24.6597V24.6634ZM123.109 36.9619L113.271 24.6597L72.3334 38.8349L80.8784 51.0374L123.109 36.9619Z" fill="white"/>
</svg>
