<svg width="136" height="132" viewBox="0 0 136 132" fill="none" xmlns="http://www.w3.org/2000/svg">
<path d="M122.387 79.5366V41.7747M122.387 79.5366H16.4188C15.6104 79.5358 14.8238 79.7993 14.179 80.2869C13.5341 80.7744 13.0662 81.4594 12.8466 82.2374L4.46603 111.885C3.94653 113.722 3.86001 115.656 4.21325 117.533C4.56649 119.41 5.3499 121.179 6.50198 122.703C7.65407 124.226 9.14349 125.462 10.8534 126.313C12.5633 127.164 14.4471 127.607 16.357 127.607H119.643C121.553 127.607 123.437 127.164 125.147 126.313C126.857 125.462 128.346 124.226 129.498 122.703C130.65 121.179 131.434 119.41 131.787 117.533C132.14 115.656 132.053 113.722 131.534 111.885L122.387 79.5366Z" stroke="white" stroke-width="8" stroke-linecap="round" stroke-linejoin="round"/>
<path d="M13.613 79.5362V16.3607C13.613 13.0824 14.9153 9.93844 17.2334 7.62036C19.5515 5.30228 22.6955 4 25.9737 4H68.0001" stroke="white" stroke-width="8" stroke-linecap="round" stroke-linejoin="round"/>
<path d="M61.8201 109.066H74.1808" stroke="white" stroke-width="8" stroke-linecap="round" stroke-linejoin="round"/>
<path d="M102.962 21.4781L85.4778 38.9623" stroke="white" stroke-width="8" stroke-linecap="round" stroke-linejoin="round"/>
<path d="M120.44 21.478C119.3 22.6586 117.936 23.6003 116.428 24.2481C114.92 24.8959 113.298 25.2369 111.657 25.2511C110.016 25.2654 108.388 24.9526 106.869 24.3311C105.35 23.7096 103.97 22.7918 102.809 21.6312C101.649 20.4707 100.731 19.0906 100.109 17.5715C99.4877 16.0524 99.1749 14.4247 99.1892 12.7835C99.2034 11.1423 99.5444 9.52028 100.192 8.01223C100.84 6.50417 101.782 5.14024 102.962 4" stroke="white" stroke-width="8" stroke-linecap="round" stroke-linejoin="round"/>
<path d="M85.4785 56.4402C87.7301 54.109 88.976 50.9867 88.9478 47.7457C88.9197 44.5048 87.6197 41.4046 85.3279 39.1128C83.0362 36.821 79.9359 35.5211 76.695 35.4929C73.4541 35.4647 70.3317 36.7106 68.0005 38.9622" stroke="white" stroke-width="8" stroke-linecap="round" stroke-linejoin="round"/>
</svg>
