<svg width="128" height="121" viewBox="0 0 128 121" fill="none" xmlns="http://www.w3.org/2000/svg">
<path d="M128 0H0V38.2105H6.4V108.263C6.4 111.641 7.74857 114.881 10.149 117.269C12.5495 119.658 15.8052 121 19.2 121H108.8C112.195 121 115.451 119.658 117.851 117.269C120.251 114.881 121.6 111.641 121.6 108.263V38.2105H128V0ZM12.8 12.7368H115.2V25.4737H12.8V12.7368ZM108.8 108.263H19.2V38.2105H108.8V108.263ZM70.4 44.5789V77.5037L86.976 61.0732L96 70.0526L64 101.895L32 70.0526L41.024 61.0095L57.6 77.5037V44.5789H70.4Z" fill="white"/>
</svg>
