<svg width="136" height="136" viewBox="0 0 136 136" fill="none" xmlns="http://www.w3.org/2000/svg">
<path d="M39.5556 4H11.1111C9.22513 4 7.41639 4.7492 6.0828 6.0828C4.7492 7.41639 4 9.22513 4 11.1111V39.5556" stroke="white" stroke-width="8" stroke-linecap="round" stroke-linejoin="round"/>
<path d="M39.5556 132H11.1111C9.22513 132 7.41639 131.251 6.0828 129.917C4.7492 128.584 4 126.775 4 124.889V96.4444" stroke="white" stroke-width="8" stroke-linecap="round" stroke-linejoin="round"/>
<path d="M96.4443 132H124.889C126.775 132 128.584 131.251 129.917 129.917C131.251 128.584 132 126.775 132 124.889V96.4444" stroke="white" stroke-width="8" stroke-linecap="round" stroke-linejoin="round"/>
<path d="M96.4443 4H124.889C126.775 4 128.584 4.7492 129.917 6.0828C131.251 7.41639 132 9.22513 132 11.1111V39.5556" stroke="white" stroke-width="8" stroke-linecap="round" stroke-linejoin="round"/>
<path d="M68 39.5556V96.4445" stroke="white" stroke-width="8" stroke-linecap="round" stroke-linejoin="round"/>
<path d="M96.4443 39.5556V96.4445" stroke="white" stroke-width="8" stroke-linecap="round" stroke-linejoin="round"/>
<path d="M39.5557 39.5556V96.4445" stroke="white" stroke-width="8" stroke-linecap="round" stroke-linejoin="round"/>
</svg>
